<svg xmlns="http://www.w3.org/2000/svg" xmlns:xlink="http://www.w3.org/1999/xlink" width="500" zoomAndPan="magnify" viewBox="0 0 375 374.999991" height="500" preserveAspectRatio="xMidYMid meet" version="1.0"><defs><g/></defs><path stroke-linecap="butt" transform="matrix(3.268462, 0, 0, 3.268462, -18.701565, 57.748014)" fill="none" stroke-linejoin="miter" d="M 34.767168 41.5112 C 35.557152 41.085732 36.020864 40.491751 36.160695 39.72806 C 36.29933 38.954808 36.129621 38.260435 35.652763 37.643746 C 35.174709 37.019886 34.384726 36.706761 33.282812 36.706761 C 32.354193 36.672102 31.651454 36.932641 31.1734 37.488379 C 30.696542 38.034555 30.449149 38.672757 30.431222 39.401788 C 30.41449 40.13082 30.627224 40.782168 31.069424 41.354638 C 31.511623 41.918741 32.215557 42.200792 33.178835 42.200792 L 48.268598 42.200792 L 48.268598 54.999483 L 33.178835 54.999483 C 31.043131 54.999483 29.050842 54.600309 27.20197 53.801959 C 25.353097 53.003609 23.716959 51.892135 22.293554 50.46873 C 20.870149 49.045325 19.75987 47.409187 18.960325 45.560314 C 18.161975 43.711442 17.762801 41.719153 17.762801 39.584644 C 17.762801 36.780859 18.392636 34.224468 19.651112 31.915468 C 20.917955 29.598103 22.715436 27.740865 25.041167 26.342558 C 27.366898 24.93708 30.132438 24.216415 33.335398 24.181756 C 35.001415 24.181756 36.680578 24.341904 38.374083 24.663395 C 40.066393 24.975325 41.659507 25.578868 43.152229 26.472828 C 44.644952 27.358422 45.886696 28.67307 46.876267 30.417965 C 47.30054 31.164924 47.608884 32.054104 47.800106 33.087895 C 47.999693 34.112125 48.073791 35.166233 48.021206 36.251415 C 47.969815 37.336597 47.74752 38.351266 47.357906 39.297812 C 46.967097 40.234797 46.363555 40.97339 45.547278 41.5112 Z M 34.767168 41.5112 " stroke="#c9e4df" stroke-width="3.999998" stroke-opacity="1" stroke-miterlimit="4"/><g fill="#2b2d33" fill-opacity="1"><g transform="translate(37.781539, 237.513407)"><g><path d="M 57.171875 -44.09375 C 59.734375 -45.488281 61.242188 -47.4375 61.703125 -49.9375 C 62.171875 -52.4375 61.617188 -54.703125 60.046875 -56.734375 C 58.484375 -58.773438 55.898438 -59.796875 52.296875 -59.796875 C 49.273438 -59.910156 46.976562 -59.066406 45.40625 -57.265625 C 43.84375 -55.460938 43.03125 -53.367188 42.96875 -50.984375 C 42.90625 -48.597656 43.597656 -46.472656 45.046875 -44.609375 C 46.503906 -42.753906 48.800781 -41.828125 51.9375 -41.828125 L 101.28125 -41.828125 L 101.28125 0 L 51.9375 0 C 44.96875 0 38.460938 -1.304688 32.421875 -3.921875 C 26.378906 -6.535156 21.03125 -10.164062 16.375 -14.8125 C 11.726562 -19.46875 8.097656 -24.816406 5.484375 -30.859375 C 2.867188 -36.898438 1.5625 -43.40625 1.5625 -50.375 C 1.5625 -59.550781 3.625 -67.914062 7.75 -75.46875 C 11.875 -83.03125 17.742188 -89.101562 25.359375 -93.6875 C 32.972656 -98.28125 42.007812 -100.632812 52.46875 -100.75 C 57.925781 -100.75 63.414062 -100.222656 68.9375 -99.171875 C 74.457031 -98.128906 79.65625 -96.15625 84.53125 -93.25 C 89.414062 -90.351562 93.488281 -86.054688 96.75 -80.359375 C 98.132812 -77.921875 99.144531 -75.015625 99.78125 -71.640625 C 100.425781 -68.273438 100.660156 -64.816406 100.484375 -61.265625 C 100.316406 -57.722656 99.59375 -54.410156 98.3125 -51.328125 C 97.03125 -48.253906 95.054688 -45.84375 92.390625 -44.09375 Z M 57.171875 -44.09375 "/></g></g></g><path stroke-linecap="butt" transform="matrix(1.069441, 0, 0, 1.069441, 109.05245, 72.503966)" fill="none" stroke-linejoin="miter" d="M 55.313568 55.545187 C 60.065614 55.545187 64.554672 56.432771 68.784395 58.20794 C 73.014117 59.986761 76.732475 62.437662 79.939466 65.567949 C 83.146458 68.698236 85.69598 72.358152 87.588032 76.547696 C 89.498347 80.73724 90.491857 85.200729 90.572215 89.930859 L 61.252713 89.930859 C 61.099303 88.444247 60.460096 87.209665 59.342397 86.22346 C 58.239309 85.218992 56.898801 84.718585 55.313568 84.718585 C 53.655283 84.718585 52.22346 85.31396 51.025404 86.512016 C 49.849263 87.691809 49.261193 89.109022 49.261193 90.77096 C 49.261193 92.432897 49.849263 93.861068 51.025404 95.059124 C 52.22346 96.238917 53.655283 96.826987 55.313568 96.826987 C 56.898801 96.826987 58.239309 96.333885 59.342397 95.34768 C 60.460096 94.365128 61.099303 93.119588 61.252713 91.61106 L 90.572215 91.61106 C 90.491857 96.363106 89.498347 100.833901 87.588032 105.023445 C 85.69598 109.216641 83.146458 112.913083 79.939466 116.120075 C 76.732475 119.327066 73.014117 121.83641 68.784395 123.651757 C 64.554672 125.467104 60.065614 126.376604 55.313568 126.376604 C 50.506733 126.376604 45.959234 125.448841 41.671069 123.593315 C 37.401168 121.719526 33.646285 119.144436 30.399114 115.860739 C 27.155596 112.577043 24.624337 108.781981 22.80899 104.475553 C 20.993643 100.169126 20.087796 95.59971 20.087796 90.77096 C 20.087796 85.865504 20.993643 81.299742 22.80899 77.070019 C 24.624337 72.840296 27.155596 69.103676 30.399114 65.856506 C 33.646285 62.612988 37.401168 60.081729 41.671069 58.266382 C 45.959234 56.451034 50.506733 55.545187 55.313568 55.545187 Z M 55.313568 55.545187 " stroke="#c9e4df" stroke-width="8.900025" stroke-opacity="1" stroke-miterlimit="4"/><g fill="#2b2d33" fill-opacity="1"><g transform="translate(129.388533, 205.114613)"><g><path d="M 38.828125 -73.21875 C 43.910156 -73.21875 48.710938 -72.265625 53.234375 -70.359375 C 57.765625 -68.460938 61.742188 -65.84375 65.171875 -62.5 C 68.597656 -59.15625 71.320312 -55.238281 73.34375 -50.75 C 75.375 -46.269531 76.4375 -41.492188 76.53125 -36.421875 L 45.171875 -36.421875 C 45.003906 -38.023438 44.328125 -39.351562 43.140625 -40.40625 C 41.960938 -41.46875 40.523438 -42 38.828125 -42 C 37.054688 -42 35.535156 -41.363281 34.265625 -40.09375 C 32.992188 -38.832031 32.359375 -37.3125 32.359375 -35.53125 C 32.359375 -33.757812 32.992188 -32.238281 34.265625 -30.96875 C 35.535156 -29.695312 37.054688 -29.0625 38.828125 -29.0625 C 40.523438 -29.0625 41.960938 -29.585938 43.140625 -30.640625 C 44.328125 -31.703125 45.003906 -33.035156 45.171875 -34.640625 L 76.53125 -34.640625 C 76.4375 -29.566406 75.375 -24.785156 73.34375 -20.296875 C 71.320312 -15.816406 68.597656 -11.863281 65.171875 -8.4375 C 61.742188 -5.007812 57.765625 -2.320312 53.234375 -0.375 C 48.710938 1.5625 43.910156 2.53125 38.828125 2.53125 C 33.671875 2.53125 28.804688 1.539062 24.234375 -0.4375 C 19.671875 -2.425781 15.65625 -5.175781 12.1875 -8.6875 C 8.71875 -12.195312 6.007812 -16.257812 4.0625 -20.875 C 2.113281 -25.488281 1.140625 -30.375 1.140625 -35.53125 C 1.140625 -40.78125 2.113281 -45.664062 4.0625 -50.1875 C 6.007812 -54.71875 8.71875 -58.71875 12.1875 -62.1875 C 15.65625 -65.65625 19.671875 -68.359375 24.234375 -70.296875 C 28.804688 -72.242188 33.671875 -73.21875 38.828125 -73.21875 Z M 38.828125 -73.21875 "/></g></g></g><path stroke-linecap="butt" transform="matrix(1.069441, 0, 0, 1.069441, 182.45009, 108.12115)" fill="none" stroke-linejoin="miter" d="M 35.371062 57.426285 C 41.456311 57.426285 47.125162 58.576857 52.377615 60.874349 C 57.648332 63.171841 61.889012 66.79523 65.096004 71.737212 C 68.299343 76.682846 69.902839 83.104135 69.902839 91.004731 L 69.902839 123.998759 L 40.933988 123.998759 L 40.933988 91.004731 C 40.933988 89.109026 40.404359 87.651635 39.34145 86.628904 C 38.27854 85.606173 37.051263 85.054629 35.663271 84.977924 C 34.271627 84.882956 33.04435 85.33588 31.98144 86.340348 C 30.918531 87.3229 30.388902 88.878912 30.388902 91.004731 L 30.388902 123.998759 L 1.186284 123.998759 L 1.186284 40.828824 L 30.388902 40.828824 L 30.388902 57.776936 C 32.05084 57.543169 33.712777 57.426285 35.371062 57.426285 Z M 35.371062 57.426285 " stroke="#c9e4df" stroke-width="8.900025" stroke-opacity="1" stroke-miterlimit="4"/><g fill="#2b2d33" fill-opacity="1"><g transform="translate(182.45009, 240.731796)"><g><path d="M 37.8125 -71.1875 C 44.332031 -71.1875 50.40625 -69.957031 56.03125 -67.5 C 61.65625 -65.050781 66.179688 -61.179688 69.609375 -55.890625 C 73.035156 -50.609375 74.75 -43.738281 74.75 -35.28125 L 74.75 0 L 43.78125 0 L 43.78125 -35.28125 C 43.78125 -37.3125 43.207031 -38.875 42.0625 -39.96875 C 40.925781 -41.070312 39.617188 -41.664062 38.140625 -41.75 C 36.660156 -41.832031 35.347656 -41.34375 34.203125 -40.28125 C 33.054688 -39.226562 32.484375 -37.5625 32.484375 -35.28125 L 32.484375 0 L 1.265625 0 L 1.265625 -88.96875 L 32.484375 -88.96875 L 32.484375 -70.8125 C 34.265625 -71.0625 36.039062 -71.1875 37.8125 -71.1875 Z M 37.8125 -71.1875 "/></g></g></g><path stroke-linecap="butt" transform="matrix(1.069441, 0, 0, 1.069441, 233.30186, 108.12115)" fill="none" stroke-linejoin="miter" d="M 51.869708 125.912726 C 47.040958 125.912726 42.493458 125.003227 38.227209 123.187879 C 33.957308 121.354269 30.202425 118.815705 26.955254 115.568534 C 23.711736 112.325017 21.180477 108.570133 19.36513 104.300232 C 17.549783 100.033983 16.643936 95.482831 16.643936 90.65408 C 16.643936 85.748625 17.549783 81.182862 19.36513 76.953139 C 21.180477 72.723417 23.711736 68.986797 26.955254 65.743279 C 30.202425 62.496108 33.957308 59.968502 38.227209 58.153155 C 42.493458 56.337807 47.040958 55.428307 51.869708 55.428307 C 56.775164 55.428307 61.344579 56.337807 65.574302 58.153155 C 69.822288 59.968502 73.558908 62.496108 76.784163 65.743279 C 80.02768 68.986797 82.558939 72.723417 84.374287 76.953139 C 86.207897 81.182862 87.128355 85.748625 87.128355 90.65408 C 87.128355 95.482831 86.207897 100.033983 84.374287 104.300232 C 82.558939 108.570133 80.02768 112.325017 76.784163 115.568534 C 73.558908 118.815705 69.822288 121.354269 65.574302 123.187879 C 61.344579 125.003227 56.775164 125.912726 51.869708 125.912726 Z M 51.869708 84.601705 C 50.211423 84.601705 48.7796 85.200733 47.581544 86.398789 C 46.405404 87.57493 45.817333 88.995795 45.817333 90.65408 C 45.817333 92.316018 46.405404 93.744188 47.581544 94.942245 C 48.7796 96.122038 50.211423 96.710108 51.869708 96.710108 C 53.531646 96.710108 54.952511 96.122038 56.128652 94.942245 C 57.326708 93.744188 57.925736 92.316018 57.925736 90.65408 C 57.925736 88.995795 57.326708 87.57493 56.128652 86.398789 C 54.952511 85.200733 53.531646 84.601705 51.869708 84.601705 Z M 51.869708 84.601705 " stroke="#c9e4df" stroke-width="8.900025" stroke-opacity="1" stroke-miterlimit="4"/><g fill="#2b2d33" fill-opacity="1"><g transform="translate(250.078711, 240.731796)"><g><path d="M 38.703125 2.03125 C 33.546875 2.03125 28.679688 1.054688 24.109375 -0.890625 C 19.546875 -2.835938 15.53125 -5.546875 12.0625 -9.015625 C 8.59375 -12.484375 5.882812 -16.5 3.9375 -21.0625 C 1.988281 -25.632812 1.015625 -30.5 1.015625 -35.65625 C 1.015625 -40.90625 1.988281 -45.789062 3.9375 -50.3125 C 5.882812 -54.84375 8.59375 -58.84375 12.0625 -62.3125 C 15.53125 -65.78125 19.546875 -68.488281 24.109375 -70.4375 C 28.679688 -72.382812 33.546875 -73.359375 38.703125 -73.359375 C 43.953125 -73.359375 48.835938 -72.382812 53.359375 -70.4375 C 57.890625 -68.488281 61.890625 -65.78125 65.359375 -62.3125 C 68.828125 -58.84375 71.53125 -54.84375 73.46875 -50.3125 C 75.414062 -45.789062 76.390625 -40.90625 76.390625 -35.65625 C 76.390625 -30.5 75.414062 -25.632812 73.46875 -21.0625 C 71.53125 -16.5 68.828125 -12.484375 65.359375 -9.015625 C 61.890625 -5.546875 57.890625 -2.835938 53.359375 -0.890625 C 48.835938 1.054688 43.953125 2.03125 38.703125 2.03125 Z M 38.703125 -42.140625 C 36.929688 -42.140625 35.410156 -41.503906 34.140625 -40.234375 C 32.867188 -38.960938 32.234375 -37.4375 32.234375 -35.65625 C 32.234375 -33.882812 32.867188 -32.363281 34.140625 -31.09375 C 35.410156 -29.820312 36.929688 -29.1875 38.703125 -29.1875 C 40.484375 -29.1875 42.003906 -29.820312 43.265625 -31.09375 C 44.535156 -32.363281 45.171875 -33.882812 45.171875 -35.65625 C 45.171875 -37.4375 44.535156 -38.960938 43.265625 -40.234375 C 42.003906 -41.503906 40.484375 -42.140625 38.703125 -42.140625 Z M 38.703125 -42.140625 "/></g></g></g><g fill="#2b2d33" fill-opacity="1"><g transform="translate(257.923552, 155.272446)"><g><path d="M 7.953125 -2.875 C 7.171875 -2.5625 6.34375 -2.335938 5.46875 -2.203125 C 4.601562 -2.078125 3.75 -2.085938 2.90625 -2.234375 C 2.0625 -2.378906 1.265625 -2.710938 0.515625 -3.234375 C -0.222656 -3.765625 -0.859375 -4.535156 -1.390625 -5.546875 L 1.765625 -6.828125 C 2.265625 -6.128906 2.800781 -5.644531 3.375 -5.375 C 3.957031 -5.113281 4.554688 -5.007812 5.171875 -5.0625 C 5.785156 -5.113281 6.367188 -5.253906 6.921875 -5.484375 C 7.753906 -5.816406 8.382812 -6.273438 8.8125 -6.859375 C 9.238281 -7.441406 9.296875 -8.117188 8.984375 -8.890625 C 8.753906 -9.460938 8.390625 -9.828125 7.890625 -9.984375 C 7.398438 -10.140625 6.828125 -10.191406 6.171875 -10.140625 C 5.515625 -10.085938 4.8125 -9.988281 4.0625 -9.84375 C 3.34375 -9.71875 2.613281 -9.613281 1.875 -9.53125 C 1.144531 -9.457031 0.4375 -9.46875 -0.25 -9.5625 C -0.945312 -9.65625 -1.566406 -9.90625 -2.109375 -10.3125 C -2.660156 -10.726562 -3.101562 -11.359375 -3.4375 -12.203125 C -3.863281 -13.242188 -3.96875 -14.21875 -3.75 -15.125 C -3.539062 -16.03125 -3.078125 -16.832031 -2.359375 -17.53125 C -1.648438 -18.226562 -0.75 -18.800781 0.34375 -19.25 C 1.382812 -19.664062 2.4375 -19.878906 3.5 -19.890625 C 4.5625 -19.898438 5.5625 -19.65625 6.5 -19.15625 C 7.4375 -18.664062 8.226562 -17.875 8.875 -16.78125 L 5.765625 -15.53125 C 5.210938 -16.300781 4.539062 -16.757812 3.75 -16.90625 C 2.96875 -17.050781 2.15625 -16.957031 1.3125 -16.625 C 0.5625 -16.320312 0.00390625 -15.910156 -0.359375 -15.390625 C -0.734375 -14.867188 -0.796875 -14.300781 -0.546875 -13.6875 C -0.347656 -13.195312 -0.0195312 -12.878906 0.4375 -12.734375 C 0.90625 -12.585938 1.453125 -12.546875 2.078125 -12.609375 C 2.710938 -12.679688 3.382812 -12.769531 4.09375 -12.875 C 4.832031 -13.007812 5.582031 -13.113281 6.34375 -13.1875 C 7.113281 -13.257812 7.859375 -13.238281 8.578125 -13.125 C 9.304688 -13.019531 9.960938 -12.75 10.546875 -12.3125 C 11.128906 -11.882812 11.609375 -11.207031 11.984375 -10.28125 C 12.597656 -8.757812 12.554688 -7.335938 11.859375 -6.015625 C 11.160156 -4.691406 9.859375 -3.644531 7.953125 -2.875 Z M 7.953125 -2.875 "/></g></g></g><g fill="#2b2d33" fill-opacity="1"><g transform="translate(275.706707, 148.809323)"><g><path d="M 8.828125 -0.265625 L 5.546875 -0.15625 L 5.125 -14.625 L -0.1875 -14.46875 L -0.28125 -17.40625 L 13.609375 -17.828125 L 13.703125 -14.890625 L 8.40625 -14.734375 Z M 8.828125 -0.265625 "/></g></g></g><g fill="#2b2d33" fill-opacity="1"><g transform="translate(293.157558, 148.706125)"><g><path d="M 9.203125 3.109375 L 5.953125 2.015625 L 8.140625 -4.453125 L 5.515625 -16.5 L 9.140625 -15.28125 L 10.765625 -6.921875 L 17.171875 -12.5625 L 20.765625 -11.34375 L 11.390625 -3.359375 Z M 9.203125 3.109375 "/></g></g></g><g fill="#2b2d33" fill-opacity="1"><g transform="translate(310.945775, 155.599117)"><g><path d="M 9.59375 7.53125 L 1.21875 0.953125 L 11.96875 -12.734375 L 14.5625 -10.703125 L 5.625 0.671875 L 11.40625 5.21875 Z M 9.59375 7.53125 "/></g></g></g><g fill="#2b2d33" fill-opacity="1"><g transform="translate(323.060976, 165.602134)"><g><path d="M 7.234375 10.984375 L 0.84375 1.296875 L 15.390625 -8.265625 L 21.78125 1.421875 L 19.3125 3.03125 L 14.734375 -3.90625 L 11.15625 -1.546875 L 15.265625 4.671875 L 12.828125 6.28125 L 8.71875 0.0625 L 5.109375 2.4375 L 9.6875 9.375 Z M 7.234375 10.984375 "/></g></g></g></svg>